<?xml version="1.0" standalone="no"?>
<!DOCTYPE svg PUBLIC "-//W3C//DTD SVG 20010904//EN"
 "http://www.w3.org/TR/2001/REC-SVG-20010904/DTD/svg10.dtd">
<svg version="1.0" xmlns="http://www.w3.org/2000/svg"
 width="844.000000pt" height="845.000000pt" viewBox="0 0 844.000000 845.000000"
 preserveAspectRatio="xMidYMid meet">

<g transform="translate(0.000000,845.000000) scale(0.100000,-0.100000)"
fill="#000000" stroke="none">
<path d="M3930 8439 c-146 -11 -274 -27 -415 -50 -1311 -218 -2454 -1061
-3056 -2254 -52 -104 -110 -226 -129 -270 -540 -1297 -410 -2759 348 -3935
579 -897 1493 -1550 2526 -1805 1011 -249 2074 -120 2982 363 384 205 676 417
982 716 814 795 1272 1883 1272 3021 0 909 -292 1791 -834 2520 -553 743
-1345 1292 -2221 1540 -477 135 -996 190 -1455 154z m730 -324 c710 -84 1346
-334 1906 -750 995 -739 1584 -1909 1584 -3145 0 -234 -22 -473 -66 -710 -297
-1608 -1563 -2864 -3174 -3149 -245 -43 -393 -55 -685 -55 -292 0 -440 12
-685 55 -692 122 -1338 429 -1871 886 -1061 911 -1556 2311 -1303 3683 297
1608 1563 2864 3174 3149 104 18 315 44 445 55 109 9 546 -3 675 -19z"/>
<path d="M3978 5539 l-237 -1290 237 -1284 c130 -706 239 -1281 242 -1278 2 2
111 581 241 1285 l237 1282 -236 1288 c-131 708 -239 1288 -242 1288 -3 0
-112 -581 -242 -1291z"/>
</g>
</svg>
